<?xml version="1.0" encoding="UTF-8"?>
<svg version="1.1" xmlns="http://www.w3.org/2000/svg" width="500" height="500">
<path d="M0 0 C165 0 330 0 500 0 C500 165 500 330 500 500 C335 500 170 500 0 500 C0 335 0 170 0 0 Z " fill="#000000" transform="translate(0,0)"/>
<path d="M0 0 C3.03739302 1.35754589 5.11935473 2.87772991 7.45166016 5.24047852 C8.10558746 5.89778458 8.75951477 6.55509064 9.43325806 7.23231506 C10.12817352 7.94069016 10.82308899 8.64906525 11.5390625 9.37890625 C12.62216202 10.46980812 12.62216202 10.46980812 13.72714233 11.58274841 C16.03122694 13.90463582 18.32851132 16.23310139 20.625 18.5625 C22.92949133 20.89458572 25.23541392 23.22520945 27.54428101 25.55296326 C28.98049156 27.00145538 30.41402086 28.45261176 31.84463501 29.90663147 C32.492258 30.56078537 33.13988098 31.21493927 33.80712891 31.88891602 C34.37686432 32.46690445 34.94659973 33.04489288 35.53359985 33.64039612 C38.61448432 36.49690325 41.18477216 36.08550743 45.2578125 36.03515625 C47.2057312 36.04408256 49.15364998 36.05304757 51.1015625 36.06323242 C53.09650244 36.06251032 55.09132937 36.02662515 57.0859375 35.99023438 C63.76819169 36.06801365 68.05440284 36.18438342 72.9296875 41.05859375 C73.99230546 42.34091325 75.03170606 43.64504352 76 45 C71.83791513 49.97794584 67.49147725 54.60885162 62.8515625 59.140625 C61.50362655 60.47107085 60.15597837 61.8018083 58.80859375 63.1328125 C56.70483749 65.20543495 54.59882475 67.27560714 52.48779297 69.34082031 C50.43570915 71.35077369 48.39302389 73.36989151 46.3515625 75.390625 C45.39547592 76.31878021 45.39547592 76.31878021 44.42007446 77.26568604 C42.88890148 78.78775958 41.43639442 80.38817816 40 82 C40 82.99 40 83.98 40 85 C38.80664063 86.53393555 38.80664063 86.53393555 37.15625 88.13671875 C36.56972656 88.71357422 35.98320313 89.29042969 35.37890625 89.88476562 C34.75886719 90.47966797 34.13882813 91.07457031 33.5 91.6875 C32.56994141 92.59725586 32.56994141 92.59725586 31.62109375 93.52539062 C30.08735293 95.02373743 28.54451802 96.51276493 27 98 C29.24398605 98.62629551 29.24398605 98.62629551 32 98 C33.41080228 96.5897879 33.41080228 96.5897879 34.71484375 94.75390625 C38.25564497 90.04999794 41.67641564 85.73034459 47 83 C51.60941695 82.65495727 56.1007012 83.32494461 60.6875 83.8125 C69.2030257 84.51698459 75.08801947 83.79847564 81.88818359 78.48535156 C93.24768317 68.72348662 103.27165925 57.35814177 113 46 C114.65 47.32 116.3 48.64 118 50 C116.49315032 53.53239023 114.44633388 55.7962166 111.73388672 58.49316406 C110.85312469 59.37377502 109.97236267 60.25438599 109.06491089 61.16168213 C108.10327649 62.11310431 107.1415328 63.06441603 106.1796875 64.015625 C105.19561893 64.99596129 104.21199258 65.97674168 103.22879028 66.95794678 C100.64557286 69.53354467 98.05640488 72.10307857 95.46594238 74.67138672 C92.8213238 77.29551067 90.1823899 79.92533771 87.54296875 82.5546875 C82.36751928 87.7087167 77.18576878 92.85635157 72 98 C75.23590997 98.36928003 76.60467493 98.29068981 79.27168274 96.32958984 C80.04223495 95.54793457 80.81278717 94.7662793 81.60668945 93.9609375 C82.9274926 92.63956787 82.9274926 92.63956787 84.27497864 91.29150391 C85.22135063 90.31959987 86.16744506 89.34742548 87.11328125 88.375 C88.09153017 87.3874225 89.07089126 86.40094551 90.05131531 85.41552734 C92.62544486 82.82233161 95.18420572 80.21447291 97.74005127 77.60327148 C100.35208761 74.94003465 102.97838367 72.29094321 105.60351562 69.640625 C110.74973739 64.44082234 115.8798051 59.22544656 121 54 C128.38561539 60.25557019 128.38561539 60.25557019 131.52734375 63.4296875 C132.37329102 64.28046875 132.37329102 64.28046875 133.23632812 65.1484375 C133.79771484 65.71820313 134.35910156 66.28796875 134.9375 66.875 C135.52595703 67.46796875 136.11441406 68.0609375 136.72070312 68.671875 C138.14947674 70.11226466 139.57508132 71.5557967 141 73 C139.43717018 76.76603869 137.0936525 79.13639151 134.2109375 81.984375 C133.74765045 82.44483215 133.2843634 82.90528931 132.80703735 83.37969971 C131.33434102 84.84125078 129.85482597 86.29567168 128.375 87.75 C127.37193678 88.74302611 126.36932743 89.73651089 125.3671875 90.73046875 C122.91669165 93.15897941 120.4600333 95.58114675 118 98 C120.2854035 98.38586902 120.2854035 98.38586902 123 98 C125.61933883 96.07096107 125.61933883 96.07096107 128.08203125 93.40625 C128.54107346 92.94013306 129.00011566 92.47401611 129.47306824 91.99377441 C130.93172909 90.50719906 132.37201865 89.00417692 133.8125 87.5 C134.80026841 86.48714489 135.78918886 85.47541192 136.77929688 84.46484375 C139.19968483 81.98942755 141.60389902 79.49895831 144 77 C144.76570312 77.80824219 145.53140625 78.61648438 146.3203125 79.44921875 C150.69609412 83.09570344 155.39880571 82.77910857 160.875 82.8125 C161.84953125 82.83763672 162.8240625 82.86277344 163.828125 82.88867188 C166.21832018 82.94725509 168.60920189 82.9765608 171 83 C171 88.28 171 93.56 171 99 C172.32 99 173.64 99 175 99 C175 93.72 175 88.44 175 83 C177.10375 83.04125 179.2075 83.0825 181.375 83.125 C187.61619997 82.73809634 190.4955978 81.39870138 194.875 76.9375 C196.28483316 75.32140507 197.6729833 73.68476083 199 72 C203.20819351 75.45140667 207.09399992 79.05128376 210.8828125 82.9609375 C212.16865234 84.28544922 212.16865234 84.28544922 213.48046875 85.63671875 C215.25898687 87.47828626 217.02971723 89.32740365 218.79296875 91.18359375 C219.64761719 92.05886719 220.50226563 92.93414062 221.3828125 93.8359375 C222.14996582 94.63563965 222.91711914 95.4353418 223.70751953 96.25927734 C226.18394157 98.50394927 226.18394157 98.50394927 231 98 C221.76 88.76 212.52 79.52 203 70 C204.80477495 66.3904501 206.11925466 64.64371929 208.9140625 61.890625 C210.05488281 60.75947266 210.05488281 60.75947266 211.21875 59.60546875 C212.0128125 58.82816406 212.806875 58.05085938 213.625 57.25 C214.42679687 56.45722656 215.22859375 55.66445313 216.0546875 54.84765625 C218.03202846 52.89385507 220.01388909 50.94487897 222 49 C225.65626722 50.53491275 227.94341688 52.72384273 230.70507812 55.54150391 C231.15765488 56.00021378 231.61023163 56.45892365 232.07652283 56.93153381 C233.0548218 57.92409742 234.03086083 58.91889253 235.00486755 59.91566849 C236.54666582 61.49232687 238.09552014 63.06172326 239.64660645 64.62924194 C244.05408913 69.08557417 248.45016579 73.55303321 252.83740234 78.02929688 C255.524354 80.76976478 258.22092732 83.50045227 260.9236908 86.22532272 C261.95134847 87.26540531 262.97519419 88.30926856 263.99513245 89.35692215 C265.41921703 90.81937072 266.85677482 92.26866313 268.29492188 93.71728516 C269.5159259 94.96066147 269.5159259 94.96066147 270.76159668 96.22915649 C273.04714007 98.41362593 273.04714007 98.41362593 277 98 C275.35837891 97.03707031 275.35837891 97.03707031 273.68359375 96.0546875 C268.14162145 92.14412962 262.89642789 87.91330562 261.61486816 80.88909912 C260.45683982 69.01666395 261.79983873 56.82660771 263 45 C267.70341126 48.92288258 272.14273951 53.01018696 276.4375 57.375 C277.24864258 58.19291016 277.24864258 58.19291016 278.07617188 59.02734375 C279.38646723 60.34923464 280.69358284 61.67427618 282 63 C280.60652624 66.15204981 278.97514921 68.26171773 276.5234375 70.671875 C275.853125 71.33574219 275.1828125 71.99960937 274.4921875 72.68359375 C273.44417969 73.70646484 273.44417969 73.70646484 272.375 74.75 C271.31539063 75.79607422 271.31539063 75.79607422 270.234375 76.86328125 C268.49401297 78.58012488 266.74915019 80.29211832 265 82 C266.0422876 81.95174072 267.0845752 81.90348145 268.15844727 81.85375977 C299.96861638 80.57751502 299.96861638 80.57751502 307.62109375 86.40625 C310.7901185 89.46629005 313.40526317 92.84403272 315.64257812 96.63891602 C316.09052734 97.08807373 316.53847656 97.53723145 317 98 C318.65 98 320.3 98 322 98 C316.39 92.39 310.78 86.78 305 81 C306.65228057 77.69543886 307.58545539 76.16727189 310.07275391 73.70019531 C310.69324615 73.07985413 311.3137384 72.45951294 311.95303345 71.82037354 C312.62079803 71.16293152 313.28856262 70.5054895 313.9765625 69.828125 C314.66181 69.1457074 315.3470575 68.46328979 316.05307007 67.76019287 C318.23905845 65.58538402 320.43190429 63.41763928 322.625 61.25 C324.10983255 59.7752001 325.59421306 58.29994494 327.078125 56.82421875 C330.7135291 53.21084552 334.35509824 49.60379147 338 46 C342.28025509 49.42879907 345.96405015 52.95589903 349.37117004 57.25312805 C364.05498347 75.83993429 364.05498347 75.83993429 385.26171875 84.35546875 C388.75010044 84.61109114 392.19180113 84.64012513 395.6875 84.5625 C396.52079834 84.55684021 397.35409668 84.55118042 398.21264648 84.54534912 C406.33378561 84.36915993 413.04745027 83.62265083 419.12763977 77.87986755 C421.20354351 75.68173781 423.10762186 73.35634485 425 71 C425.33 71 425.66 71 426 71 C426 129.74 426 188.48 426 249 C261 249 96 249 -74 249 C-74 169.8 -74 90.6 -74 9 C-69.33333333 13 -64.66666667 17 -60 21 C-61.58667578 24.90285767 -64.13350481 27.33520982 -67.125 30.25 C-68.49011719 31.58804687 -68.49011719 31.58804687 -69.8828125 32.953125 C-70.58148438 33.62859375 -71.28015625 34.3040625 -72 35 C-71.25951416 34.98316162 -70.51902832 34.96632324 -69.75610352 34.94897461 C-66.35709748 34.8982907 -62.96179536 34.91740744 -59.5625 34.9375 C-57.81549805 34.89592773 -57.81549805 34.89592773 -56.03320312 34.85351562 C-49.23207698 34.94930613 -45.56019355 35.65855645 -40.65234375 40.56640625 C-39.40102099 42.01570074 -38.17052307 43.48469841 -37 45 C-38.36113013 48.04581486 -39.89330096 50.13839026 -42.25634766 52.48339844 C-42.91688141 53.14378113 -43.57741516 53.80416382 -44.25796509 54.48455811 C-44.96947723 55.18574768 -45.68098938 55.88693726 -46.4140625 56.609375 C-47.14370209 57.33618469 -47.87334167 58.06299438 -48.62509155 58.81182861 C-50.9537388 61.12929198 -53.28924826 63.4396995 -55.625 65.75 C-57.20618653 67.32115444 -58.78692125 68.89276371 -60.3671875 70.46484375 C-64.2395669 74.31518653 -68.11760171 78.15976117 -72 82 C-59.81612296 84.54646948 -44.57765866 87.20837733 -33.37646484 80.40698242 C-20.60114825 70.9274828 -10.06085819 58.22834156 0 46 C3.04581486 47.36113013 5.13839026 48.89330096 7.48339844 51.25634766 C8.14378113 51.91688141 8.80416382 52.57741516 9.48455811 53.25796509 C10.53634247 54.32523331 10.53634247 54.32523331 11.609375 55.4140625 C12.69958954 56.50852188 12.69958954 56.50852188 13.81182861 57.62509155 C16.12929198 59.9537388 18.4396995 62.28924826 20.75 64.625 C22.32115444 66.20618653 23.89276371 67.78692125 25.46484375 69.3671875 C29.31518653 73.2395669 33.15976117 77.11760171 37 81 C39.43376166 68.55090792 42.25254937 52.84456865 35.45123291 41.39208984 C26.32977966 28.91808564 13.93258323 18.69666269 2 9 C-1.11966041 10.48863736 -3.24012613 12.00288692 -5.671875 14.4765625 C-6.66767578 15.48203125 -6.66767578 15.48203125 -7.68359375 16.5078125 C-8.70646484 17.55582031 -8.70646484 17.55582031 -9.75 18.625 C-10.44738281 19.33140625 -11.14476562 20.0378125 -11.86328125 20.765625 C-13.58012488 22.50598703 -15.29211832 24.25084981 -17 26 C-18.32 25.34 -19.64 24.68 -21 24 C-21 21 -21 21 -19.07226562 18.73168945 C-17.75258789 17.43557739 -17.75258789 17.43557739 -16.40625 16.11328125 C-15.94013306 15.65140915 -15.47401611 15.18953705 -14.99377441 14.71366882 C-13.5027371 13.23943048 -12.00161128 11.77595912 -10.5 10.3125 C-9.48759946 9.31514472 -8.47587189 8.31710583 -7.46484375 7.31835938 C-4.98432371 4.87092436 -2.49464911 2.43304113 0 0 Z " fill="#000000" transform="translate(74,251)"/>
<path d="M0 0 C2.55078125 -0.52734375 2.55078125 -0.52734375 6 0 C7.94396826 1.85443208 9.52299111 3.89335162 11.19921875 5.9921875 C17.3963939 13.6994515 17.3963939 13.6994515 26.15478516 17.62939453 C30.79726167 17.80118839 35.37035148 17.56120241 40.00585938 17.31005859 C48.01513868 17.1616127 52.1180859 18.53337943 57.94140625 24.11328125 C61.14861883 27.6105374 64.19426857 31.17169231 67 35 C69.8605891 33.64062915 71.85927699 32.35479531 74 30 C72.38176438 25.90181523 69.42847747 23.19073925 66.3359375 20.17578125 C65.78386627 19.62891159 65.23179504 19.08204193 64.66299438 18.51860046 C62.90502587 16.77840098 61.14049513 15.04506037 59.375 13.3125 C57.60327161 11.56834995 55.83300938 9.82277336 54.06558228 8.07426453 C52.96655246 6.98753691 51.86486168 5.90349286 50.76034546 4.82234192 C49.48814147 3.56695491 48.24119722 2.2860517 47 1 C47 0.67 47 0.34 47 0 C49.12768555 -0.34179688 49.12768555 -0.34179688 52 0 C54.198622 1.76264791 56.02920655 3.44544231 57.95703125 5.46875 C58.50485764 6.02365112 59.05268402 6.57855225 59.61711121 7.15026855 C61.36100503 8.92211014 63.08669954 10.71054789 64.8125 12.5 C65.99298124 13.70556344 67.17460944 14.91000493 68.35742188 16.11328125 C71.25174216 19.06267591 74.12986235 22.02707505 77 25 C80.94139078 23.33248852 83.7892812 20.77289351 87 18 C92.33364257 22.87372193 97.59251806 27.81950642 102.80810547 32.81933594 C104.58669101 34.50791144 106.38116543 36.17992456 108.19189453 37.83398438 C124.07246705 52.37438723 124.07246705 52.37438723 125.15625 60.24316406 C125.33544891 64.61874452 124.85844531 68.71357375 124 73 C125.65 71.35 127.3 69.7 129 68 C127.68 66.35 126.36 64.7 125 63 C125.71285156 63.00902344 126.42570312 63.01804688 127.16015625 63.02734375 C132.72030797 62.855226 136.18632221 62.52100655 140.1875 58.4375 C141.15228971 57.31454804 142.10045042 56.17586174 143 55 C141.43179928 51.21774198 139.0729772 48.83741117 136.18310547 45.97192383 C135.69513489 45.48526749 135.20716431 44.99861115 134.70440674 44.49720764 C133.09655487 42.89582747 131.48185049 41.30154093 129.8671875 39.70703125 C128.74852622 38.59464149 127.63037928 37.48173427 126.51272583 36.36833191 C123.57423 33.44312299 120.63021314 30.52353975 117.68457031 27.60552979 C112.96122401 22.92535762 108.24465301 18.23838037 103.5312233 13.5482235 C101.88049555 11.90775658 100.22641886 10.27072158 98.57199097 8.63398743 C97.56724954 7.6360695 96.56261507 6.63804386 95.55810547 5.63989258 C94.67589325 4.76593338 93.79368103 3.89197418 92.88473511 2.99153137 C91 1 91 1 91 0 C94.6363863 -0.35630084 96.43543932 -0.39950066 99.46786499 1.74633789 C100.27172638 2.56352295 101.07558777 3.38070801 101.90380859 4.22265625 C102.82431 5.14361084 103.7448114 6.06456543 104.69320679 7.01342773 C105.67861031 8.02946849 106.66367949 9.0458336 107.6484375 10.0625 C108.66987679 11.09513542 109.69265307 12.12644991 110.71670532 13.15649414 C113.40324801 15.86590223 116.0712837 18.59284215 118.73583984 21.32385254 C121.46006223 24.10954643 124.20143442 26.8782487 126.94140625 29.6484375 C132.31118472 35.08248813 137.66152224 40.53517734 143 46 C143.53281588 39.88831345 143.53281588 39.88831345 141.34765625 34.34179688 C140.59355469 33.64119141 139.83945313 32.94058594 139.0625 32.21875 C138.25039062 31.44015625 137.43828125 30.6615625 136.6015625 29.859375 C135.31378906 28.69148438 135.31378906 28.69148438 134 27.5 C132.31123476 25.90759073 130.62366337 24.31391407 128.9375 22.71875 C128.18339844 22.02716797 127.42929688 21.33558594 126.65234375 20.62304688 C126.10707031 20.08744141 125.56179687 19.55183594 125 19 C125 18.67 125 18.34 125 18 C131.27 18 137.54 18 144 18 C144 12.06 144 6.12 144 0 C145.32 0 146.64 0 148 0 C148 5.94 148 11.88 148 18 C150.145 17.835 152.29 17.67 154.5 17.5 C158.70958671 17.46584514 161.16494897 17.45132094 164.7109375 19.78125 C166.64800272 21.76726633 168.38178487 23.74857026 170 26 C173.98997542 24.4150377 176.54432326 21.61326098 179.4296875 18.5546875 C180.48247887 17.46687269 181.53588325 16.37965086 182.58984375 15.29296875 C184.23785475 13.58299136 185.88075954 11.86891428 187.51318359 10.14404297 C189.09683431 8.47561336 190.69888693 6.8267712 192.3046875 5.1796875 C192.78614227 4.66099091 193.26759705 4.14229431 193.76364136 3.60787964 C196.34195576 0.99143387 197.64195959 0.03453816 201.35595703 -0.32373047 C202.22849121 -0.21689941 203.10102539 -0.11006836 204 0 C198.47349666 6.74080425 192.30550441 12.8071129 186.125 18.9375 C185.04403726 20.01343727 183.96330617 21.08960731 182.8828125 22.16601562 C180.25787359 24.78003292 177.62981372 27.39088596 175 30 C176.98 32.475 176.98 32.475 179 35 C182.15204981 33.60652624 184.26171773 31.97514921 186.671875 29.5234375 C187.33574219 28.853125 187.99960937 28.1828125 188.68359375 27.4921875 C189.70646484 26.44417969 189.70646484 26.44417969 190.75 25.375 C191.44738281 24.66859375 192.14476562 23.9621875 192.86328125 23.234375 C194.58012488 21.49401297 196.29211832 19.74915019 198 18 C201.85027991 19.78200687 204.2799142 22.07675405 207.25 25.125 C208.14203125 26.03507812 209.0340625 26.94515625 209.953125 27.8828125 C210.96632813 28.93082031 210.96632813 28.93082031 212 30 C216.53761704 26.32085105 220.66732125 22.36448955 224.72265625 18.1640625 C225.49082169 17.37343414 225.49082169 17.37343414 226.27450562 16.5668335 C228.41762464 14.36071445 230.55969112 12.1543285 232.67797852 9.92431641 C234.24162958 8.2819477 235.82374561 6.65941741 237.41015625 5.0390625 C237.88219986 4.53291412 238.35424347 4.02676575 238.84059143 3.50527954 C241.39762236 0.92767347 242.67796097 0.03028139 246.34936523 -0.31494141 C247.22407471 -0.21101074 248.09878418 -0.10708008 249 0 C245.10023279 4.66874537 241.04785356 9.09127809 236.7265625 13.37109375 C236.15795502 13.93828629 235.58934753 14.50547882 235.00350952 15.08985901 C233.21303764 16.87479913 231.41909516 18.65620256 229.625 20.4375 C228.39950677 21.65796939 227.17424428 22.87867053 225.94921875 24.09960938 C222.96880226 27.06908756 219.98527106 30.03540257 217 33 C218.4264578 36.2586636 220.16704162 38.4024854 222.6953125 40.890625 C223.41074219 41.59960938 224.12617188 42.30859375 224.86328125 43.0390625 C225.60964844 43.76867187 226.35601562 44.49828125 227.125 45.25 C227.87910156 45.99507812 228.63320313 46.74015625 229.41015625 47.5078125 C231.26900772 49.3431342 233.13237005 51.1736191 235 53 C239.51572304 49.22369848 243.81275974 45.32390572 247.9375 41.125 C248.67709961 40.37863281 248.67709961 40.37863281 249.43164062 39.6171875 C250.62345992 38.41379715 251.81208678 37.20724635 253 36 C248.61369258 30.69025943 243.90431645 25.85052728 238.9765625 21.0390625 C237 19 237 19 237 18 C238.45684204 18.08809937 238.45684204 18.08809937 239.94311523 18.17797852 C259.97209699 19.99485348 259.97209699 19.99485348 277.8984375 13.1484375 C281.52281887 9.60238042 284.47720863 5.65261162 287.47509766 1.57763672 C289 0 289 0 292.41796875 -0.52734375 C293.27003906 -0.35332031 294.12210937 -0.17929688 295 0 C289.44964797 6.78376359 283.23557973 12.85522968 277 19 C281.69766975 24.66129431 286.74723372 29.85228904 292 35 C295.15204981 33.60652624 297.26171773 31.97514921 299.671875 29.5234375 C300.33574219 28.853125 300.99960937 28.1828125 301.68359375 27.4921875 C302.36550781 26.79351562 303.04742187 26.09484375 303.75 25.375 C304.44738281 24.66859375 305.14476562 23.9621875 305.86328125 23.234375 C307.5801293 21.49400848 309.29123998 19.74829728 311 18 C311.41870865 18.36274521 311.8374173 18.72549042 312.26881409 19.09922791 C315.35591669 21.76119889 318.46150109 24.38777766 321.64038086 26.93969727 C348.81652821 48.949463 348.81652821 48.949463 350.81590271 62.66999817 C351.62819144 72.49015626 350.64095571 82.31143916 349 92 C344.09495872 87.90173716 339.55085795 83.63068778 335.11328125 79.03515625 C333.83327481 77.72793518 332.55265844 76.42131111 331.27148438 75.11523438 C329.27734762 73.07760177 327.28738255 71.0364773 325.30737305 68.98510742 C323.37894933 66.99040672 321.43525769 65.01172914 319.48828125 63.03515625 C318.60067863 62.10413841 318.60067863 62.10413841 317.69514465 61.15431213 C315.85897773 59.24743549 315.85897773 59.24743549 313 57 C309.01093568 57.44854969 307.21381944 59.43725179 304.453125 62.25390625 C303.60878906 63.10791016 302.76445312 63.96191406 301.89453125 64.84179688 C300.58548828 66.18854492 300.58548828 66.18854492 299.25 67.5625 C298.36183594 68.46419922 297.47367187 69.36589844 296.55859375 70.29492188 C294.36551685 72.52337098 292.17973956 74.75851593 290 77 C291.32 78.32 292.64 79.64 294 81 C294.26570801 80.4119458 294.53141602 79.8238916 294.80517578 79.21801758 C296.82915449 75.46079514 299.89061865 72.69923312 302.875 69.6875 C303.81279297 68.70040039 303.81279297 68.70040039 304.76953125 67.69335938 C305.68412109 66.76813477 305.68412109 66.76813477 306.6171875 65.82421875 C307.17003418 65.25791748 307.72288086 64.69161621 308.29248047 64.1081543 C310 63 310 63 311.99731445 63.12988281 C314.32518968 64.14128685 315.64721203 65.28955876 317.42578125 67.09765625 C318.05371582 67.73010254 318.68165039 68.36254883 319.32861328 69.01416016 C319.9832959 69.6901123 320.63797852 70.36606445 321.3125 71.0625 C321.99038574 71.75134277 322.66827148 72.44018555 323.36669922 73.14990234 C327.10248402 76.96876479 330.75813956 80.81995227 334.12280273 84.97436523 C335.73415005 86.71312823 337.2988668 88.07510355 339.14477539 89.54321289 C344.23145147 93.75488889 348.98609068 97.72694647 350.05957031 104.52636719 C350.43002577 109.47532392 350.14197638 114.36939795 349.8125 119.3125 C349.74713206 121.03558589 349.68784439 122.75891365 349.63476562 124.48242188 C349.49304065 128.66103853 349.26980402 132.82777615 349 137 C344.01407125 132.82222235 339.33295716 128.46872723 334.75390625 123.8515625 C334.09792953 123.19417084 333.44195282 122.53677917 332.76609802 121.85946655 C330.69584732 119.78367138 328.62912349 117.70440573 326.5625 115.625 C325.14932138 114.2067992 323.73591206 112.78882824 322.32226562 111.37109375 C318.87883935 107.91671223 315.43856901 104.4592163 312 101 C306.83297711 105.37757731 301.91643932 109.9007953 297.125 114.6875 C296.44953125 115.35072266 295.7740625 116.01394531 295.078125 116.69726562 C294.43617188 117.33728516 293.79421875 117.97730469 293.1328125 118.63671875 C292.55418457 119.21123779 291.97555664 119.78575684 291.37939453 120.37768555 C289.77083074 122.06482666 289.77083074 122.06482666 289 125 C291.28709383 125.83057615 291.28709383 125.83057615 294 126 C296.24632842 124.5810937 296.24632842 124.5810937 298.20703125 122.37890625 C298.95791016 121.60869141 299.70878906 120.83847656 300.48242188 120.04492188 C301.63581055 118.81612305 301.63581055 118.81612305 302.8125 117.5625 C303.99489258 116.33950195 303.99489258 116.33950195 305.20117188 115.09179688 C307.14821309 113.07395416 309.07994351 111.04348191 311 109 C311.41870865 109.36274521 311.8374173 109.72549042 312.26881409 110.09922791 C315.35591669 112.76119889 318.46150109 115.38777766 321.64038086 117.93969727 C348.81652821 139.949463 348.81652821 139.949463 350.81590271 153.66999817 C351.62819144 163.49015626 350.64095571 173.31143916 349 183 C357.0065094 176.39147757 364.19285618 168.91854264 371.5 161.5625 C372.81226585 160.24520941 374.12476395 158.92815014 375.4375 157.61132812 C378.62768506 154.4102139 381.81470651 151.20598135 385 148 C383.02257861 143.85517189 381.03746384 140.36857161 377 138 C372.37607238 137.12188757 367.8212312 137.11521619 363.125 137.125 C361.86429687 137.104375 360.60359375 137.08375 359.3046875 137.0625 C356.20246327 137.0154966 353.10250681 136.99555059 350 137 C353.27416504 133.17198596 356.55319627 129.34935625 359.875 125.5625 C360.47054688 124.88316406 361.06609375 124.20382812 361.6796875 123.50390625 C362.11539062 123.00761719 362.55109375 122.51132812 363 122 C362.43796875 121.7628125 361.8759375 121.525625 361.296875 121.28125 C358.48105958 119.71052303 356.52044584 117.78528536 354.25 115.5 C353.45078125 114.7059375 352.6515625 113.911875 351.828125 113.09375 C350 111 350 111 350 109 C351.21731812 109.00954712 351.21731812 109.00954712 352.45922852 109.01928711 C356.16124033 109.02800892 359.86077689 108.98324547 363.5625 108.9375 C364.83931641 108.94845703 366.11613281 108.95941406 367.43164062 108.97070312 C375.73408986 108.89701221 375.73408986 108.89701221 382.40234375 104.44140625 C383.93156703 102.60740289 383.93156703 102.60740289 385 101 C383.71007857 98.12248297 382.59704593 95.84609289 380 94 C376.80522025 93.491851 376.80522025 93.491851 373.14453125 93.48828125 C372.15207649 93.46135445 372.15207649 93.46135445 371.13957214 93.43388367 C369.03061253 93.37979102 366.92187901 93.34589069 364.8125 93.3125 C363.38082792 93.27932573 361.94918567 93.24483595 360.51757812 93.20898438 C357.0119361 93.12406743 353.50621527 93.05725079 350 93 C351.83692389 88.99625569 354.49117916 86.28042066 357.625 83.25 C358.140625 82.74339844 358.65625 82.23679687 359.1875 81.71484375 C360.45383339 80.47196098 361.7263144 79.23534724 363 78 C359.28999456 73.56609106 355.48007094 69.39851004 351.3203125 65.3828125 C350 64 350 64 350 63 C350.8470752 63.00112793 351.69415039 63.00225586 352.56689453 63.00341797 C355.73217638 62.99344926 358.89574089 62.95675302 362.06054688 62.90234375 C363.42600753 62.88425818 364.79165008 62.87660175 366.15722656 62.87988281 C374.03784287 63.13654954 374.03784287 63.13654954 381.26855469 60.60644531 C383.12881279 58.84134753 383.12881279 58.84134753 385 56 C383.63982931 52.95463834 382.11219914 50.87065783 379.74365234 48.5324707 C379.08311859 47.8753157 378.42258484 47.21816071 377.74203491 46.54109192 C377.03052277 45.8430394 376.31901062 45.14498688 375.5859375 44.42578125 C374.85629791 43.70134323 374.12665833 42.97690521 373.37490845 42.23051453 C371.04630187 39.91971151 368.7111124 37.61571279 366.375 35.3125 C364.03263921 32.99770485 361.69173022 30.68148771 359.35366821 28.36235046 C357.89851733 26.91951362 356.44070315 25.47935722 354.98007202 24.04206848 C354.32584259 23.39436996 353.67161316 22.74667145 352.99755859 22.0793457 C352.41734955 21.50738968 351.8371405 20.93543365 351.23934937 20.34614563 C350 19 350 19 350 18 C355.0491248 17.70009767 360.09293046 17.48421213 365.14892578 17.34082031 C366.86241021 17.2809915 368.57529565 17.19948142 370.28662109 17.09472656 C372.77070699 16.94663962 375.24663661 16.88064468 377.734375 16.828125 C378.48176941 16.76618958 379.22916382 16.70425415 379.99920654 16.64044189 C385.98992486 16.63310293 390.84986943 19.5505991 395.0657692 23.61377335 C402.85361064 33.05272033 400.7313458 47.89558908 400.61190605 59.49547958 C400.58126579 63.40569746 400.60977118 67.31559683 400.62854004 71.22583008 C400.65029916 77.78952446 400.62179979 84.35159237 400.56445312 90.91503906 C400.49915031 98.47581604 400.52031019 106.0327094 400.58636999 113.59339237 C400.64104145 120.1146976 400.64840854 126.63484181 400.61710596 133.15630245 C400.59851147 137.03824853 400.59557412 140.91837631 400.63554382 144.80020142 C400.87159748 171.37403196 400.87159748 171.37403196 395.02361298 178.32171631 C390.42832882 182.68187042 384.9505915 185.94256653 378.5625 186.4375 C377.8104982 186.51895264 377.0584964 186.60040527 376.28370667 186.68432617 C373.84971392 186.8870537 371.44186297 186.96247035 369 187 C368.16459686 187.02803711 367.32919373 187.05607422 366.46847534 187.08496094 C352.94208502 187.25429939 344.65517352 182.69818102 334.90072632 173.55639648 C326.74833179 165.51449722 319.19404766 156.9037635 312 148 C307.33125463 151.89976721 302.90872191 155.95214644 298.62890625 160.2734375 C298.06171371 160.84204498 297.49452118 161.41065247 296.91014099 161.99649048 C295.12520087 163.78696236 293.34379744 165.58090484 291.5625 167.375 C290.34203061 168.60049323 289.12132947 169.82575572 287.90039062 171.05078125 C284.93091244 174.03119774 281.96459743 177.01472894 279 180 C280.39138561 183.15123236 282.01354939 185.24082034 284.4765625 187.63671875 C285.146875 188.29607422 285.8171875 188.95542969 286.5078125 189.63476562 C287.55582031 190.65086914 287.55582031 190.65086914 288.625 191.6875 C290.01514489 193.04339862 291.40328536 194.40135644 292.7890625 195.76171875 C293.40475098 196.35944092 294.02043945 196.95716309 294.65478516 197.57299805 C296 199 296 199 296 200 C293.34375 200.46484375 293.34375 200.46484375 290 200 C288.7109375 198.60986328 288.7109375 198.60986328 287.46875 196.75390625 C283.67819938 191.24199815 279.77607521 186.08157538 272.9085083 184.52636719 C261.09879647 182.82281354 248.8829687 183.46534228 237 184 C240.77630152 179.48427696 244.67609428 175.18724026 248.875 171.0625 C249.37257813 170.56943359 249.87015625 170.07636719 250.3828125 169.56835938 C251.58620285 168.37654008 252.79275365 167.18791322 254 166 C252.60652624 162.84795019 250.97514921 160.73828227 248.5234375 158.328125 C247.853125 157.66425781 247.1828125 157.00039063 246.4921875 156.31640625 C245.79351562 155.63449219 245.09484375 154.95257813 244.375 154.25 C243.66859375 153.55261719 242.9621875 152.85523438 242.234375 152.13671875 C240.49401297 150.41987512 238.74915019 148.70788168 237 147 C233.48452479 169.24327776 233.48452479 169.24327776 239.2734375 189.76171875 C242.76779495 193.4890615 246.68330521 196.29507464 251 199 C251 199.33 251 199.66 251 200 C247.59239474 200.4387538 246.32552239 200.24600684 243.53849792 198.13977051 C242.67912125 197.26929077 241.81974457 196.39881104 240.93432617 195.50195312 C240.45567108 195.02402817 239.97701599 194.54610321 239.4838562 194.05369568 C237.90808217 192.4744442 236.35074666 190.878239 234.79296875 189.28125 C233.7026176 188.18157131 232.61115565 187.08299297 231.51863098 185.98547363 C228.64860372 183.09637211 225.79390816 180.1925712 222.94213867 177.28546143 C220.02847301 174.32061303 217.10056949 171.36990013 214.17382812 168.41796875 C208.43518133 162.62572669 202.71265289 156.81787982 197 151 C193.77685313 152.53287586 191.62264402 154.14150688 189.109375 156.6953125 C188.40039062 157.41074219 187.69140625 158.12617188 186.9609375 158.86328125 C186.23132813 159.60964844 185.50171875 160.35601562 184.75 161.125 C184.00492188 161.87910156 183.25984375 162.63320313 182.4921875 163.41015625 C180.6568658 165.26900772 178.8263809 167.13237005 177 169 C178.6343654 173.19318844 181.72830776 175.96450051 184.8828125 179.04296875 C185.45707977 179.61203445 186.03134705 180.18110016 186.62301636 180.76741028 C188.45231461 182.57893401 190.28817844 184.38360759 192.125 186.1875 C193.96805725 188.00298093 195.80965062 189.81988768 197.64840698 191.63972473 C198.79195197 192.77096564 199.9381583 193.89952347 201.08718872 195.02519226 C202.41020945 196.33140536 203.70798318 197.66311218 205 199 C205 199.33 205 199.66 205 200 C202.39208984 200.35546875 202.39208984 200.35546875 199 200 C196.64024613 198.16417684 194.75784242 196.46075626 192.7265625 194.3125 C192.15795502 193.73540283 191.58934753 193.15830566 191.00350952 192.5637207 C189.19607263 190.72277877 187.41064143 188.86206592 185.625 187 C184.4011352 185.7460322 183.17588913 184.49341093 181.94921875 183.2421875 C178.94991206 180.17683504 175.97016891 177.09358313 173 174 C171.91481889 174.91447846 170.83195262 175.83170407 169.75 176.75 C169.10514648 177.29430664 168.46029297 177.83861328 167.79589844 178.39941406 C165.87448783 180.0350259 165.87448783 180.0350259 164.015625 182.359375 C159.78268155 185.80479408 153.10955179 184.18924266 148 184 C148 189.28 148 194.56 148 200 C146.68 200 145.36 200 144 200 C144 194.72 144 189.44 144 184 C141.83050781 184.08701172 141.83050781 184.08701172 139.6171875 184.17578125 C137.70315736 184.22269375 135.78909221 184.26819231 133.875 184.3125 C132.44800781 184.3753418 132.44800781 184.3753418 130.9921875 184.43945312 C126.29512752 184.52099931 123.03371964 184.5749747 119.3203125 181.48046875 C118.55460937 180.66191406 117.78890625 179.84335937 117 179 C116.39526855 179.63615234 115.79053711 180.27230469 115.16748047 180.92773438 C112.90954139 183.2881302 110.63853914 185.63424998 108.35742188 187.97216797 C107.37433505 188.98536911 106.3967076 190.00389795 105.42480469 191.02783203 C104.02390984 192.50177968 102.6042751 193.95523412 101.1796875 195.40625 C100.33132324 196.28603516 99.48295898 197.16582031 98.60888672 198.07226562 C95.48222142 200.38259214 93.80043266 200.40770925 90 200 C94.67466337 194.37696243 99.67765667 189.20258446 104.875 184.0625 C105.65875 183.28326172 106.4425 182.50402344 107.25 181.70117188 C109.16438581 179.79845915 111.08108034 177.89813829 113 176 C111.5735422 172.7413364 109.83295838 170.5975146 107.3046875 168.109375 C106.58925781 167.40039062 105.87382812 166.69140625 105.13671875 165.9609375 C104.39035156 165.23132813 103.64398438 164.50171875 102.875 163.75 C102.12089844 163.00492188 101.36679688 162.25984375 100.58984375 161.4921875 C98.73099228 159.6568658 96.86762995 157.8263809 95 156 C89.38083579 160.65358102 84.29210771 165.66430299 79.21484375 170.8984375 C77.53395898 172.61141911 75.85229528 174.32363666 74.16992188 176.03515625 C71.54024195 178.71439695 68.91546464 181.39774815 66.3034668 184.09423828 C63.76678279 186.7094596 61.21154399 189.30527122 58.65234375 191.8984375 C57.87406723 192.71081879 57.09579071 193.52320007 56.29393005 194.36019897 C50.79529491 199.88626893 50.79529491 199.88626893 46.45922852 200.50634766 C45.64768311 200.33925293 44.8361377 200.1721582 44 200 C48.81437438 194.20164104 53.99248432 188.87718215 59.3359375 183.56640625 C60.65496567 182.2495005 60.65496567 182.2495005 62.00064087 180.9059906 C64.78974058 178.12245588 67.58231018 175.34243231 70.375 172.5625 C72.2752542 170.66783335 74.17474653 168.7724037 76.07421875 166.87695312 C80.71350604 162.24864839 85.35564167 157.62321579 90 153 C89.34 151.68 88.68 150.36 88 149 C85.04205247 148.66786401 85.04205247 148.66786401 83.51237488 150.32200623 C82.98775162 150.94076126 82.46312836 151.5595163 81.92260742 152.19702148 C81.31783066 152.89445969 80.71305389 153.59189789 80.08995056 154.31047058 C79.43507156 155.07297623 78.78019257 155.83548187 78.10546875 156.62109375 C52.65802047 185.14276026 52.65802047 185.14276026 41.53515625 186.01953125 C37.62773924 186.05659575 33.8854052 185.76391349 30.00073242 185.36474609 C21.9173485 184.47993564 21.9173485 184.47993564 15.015625 188.26953125 C12.33153036 190.914063 10.065924 193.74112908 7.8125 196.75390625 C6.41796875 198.60986328 6.41796875 198.60986328 5 200 C1.625 200.46484375 1.625 200.46484375 -1 200 C2.92003191 195.29596171 6.98984241 190.98329363 11.4609375 186.796875 C13.3252597 185.0145715 13.3252597 185.0145715 13 182 C14.32873535 180.3105011 14.32873535 180.3105011 16.21289062 178.4465332 C16.91361694 177.74603348 17.61434326 177.04553375 18.33630371 176.32380676 C19.10188599 175.57370834 19.86746826 174.82360992 20.65625 174.05078125 C21.43311157 173.27816452 22.20997314 172.50554779 23.01037598 171.70951843 C25.49998527 169.23673885 27.99980958 166.7745763 30.5 164.3125 C32.18687966 162.64066155 33.87308657 160.96814401 35.55859375 159.29492188 C39.69794714 155.18869475 43.84574107 151.09114359 48 147 C47.04270084 145.87411986 46.08412105 144.7493285 45.125 143.625 C44.59132812 142.99851562 44.05765625 142.37203125 43.5078125 141.7265625 C41.00328402 138.66812911 41.00328402 138.66812911 37.29443359 137.68115234 C36.17375488 137.64973145 35.05307617 137.61831055 33.8984375 137.5859375 C32.08085937 137.52792969 32.08085937 137.52792969 30.2265625 137.46875 C28.95554688 137.4378125 27.68453125 137.406875 26.375 137.375 C24.456875 137.31699219 24.456875 137.31699219 22.5 137.2578125 C19.33347983 137.16328951 16.1669696 137.07773643 13 137 C13.93645013 135.88733919 14.87582956 134.77714341 15.81640625 133.66796875 C16.33920166 133.04946045 16.86199707 132.43095215 17.40063477 131.79370117 C19 130 19 130 21.9375 127.3125 C24.20525313 125.2938482 24.20525313 125.2938482 23.9765625 123.2109375 C22.52156271 119.91681798 20.01584363 117.74277396 17.4375 115.3125 C15.60614124 113.55829886 13.79643318 111.79051413 12 110 C12 109.67 12 109.34 12 109 C13.26275757 109.00954712 13.26275757 109.00954712 14.55102539 109.01928711 C17.70339531 109.02644813 20.85358998 109.00219109 24.00561523 108.95727539 C25.36427656 108.94421289 26.72311591 108.94333061 28.08178711 108.95532227 C36.16552078 109.20388478 36.16552078 109.20388478 43.49560547 106.37939453 C45.20535103 104.66964897 46.65393637 103.00456018 48 101 C46.49793811 97.17656973 44.44393276 95.20850745 41 93 C37.82206908 92.36450435 37.82206908 92.36450435 34.38671875 92.390625 C33.13955078 92.35839844 31.89238281 92.32617188 30.60742188 92.29296875 C28.66706055 92.27169922 28.66706055 92.27169922 26.6875 92.25 C25.37458984 92.22035156 24.06167969 92.19070312 22.70898438 92.16015625 C19.47259465 92.08954411 16.23692189 92.03680123 13 92 C16.83828995 87.46548035 20.74777572 83.15098084 25 79 C23.42306589 75.10297892 20.88838498 72.7510227 17.875 69.875 C16.21276567 68.28810774 14.57775654 66.67090822 13 65 C13 64.34 13 63.68 13 63 C13.8470752 63.00636475 14.69415039 63.01272949 15.56689453 63.01928711 C18.73228501 63.02643882 21.89550059 63.00224202 25.06054688 62.95727539 C26.42604428 62.94419529 27.79171902 62.94334701 29.15722656 62.95532227 C31.12827643 62.97042885 33.0995065 62.93683285 35.0703125 62.90234375 C36.84559326 62.89448853 36.84559326 62.89448853 38.65673828 62.88647461 C43.11010746 62.04386282 43.11010746 62.04386282 48 55 C36.12 43.12 24.24 31.24 12 19 C13.32 18.34 14.64 17.68 16 17 C15.27296875 16.28082397 15.27296875 16.28082397 14.53125 15.54711914 C12.35159362 13.38815902 10.17575495 11.22539154 8 9.0625 C7.236875 8.30775391 6.47375 7.55300781 5.6875 6.77539062 C4.965625 6.05673828 4.24375 5.33808594 3.5 4.59765625 C2.8296875 3.93258057 2.159375 3.26750488 1.46875 2.58227539 C0 1 0 1 0 0 Z " fill="#FB3030" transform="translate(101,150)"/>
<path d="M0 0 C34.25740741 -2.95576132 34.25740741 -2.95576132 43.2421875 3.78515625 C47.4332868 7.72796867 50.95617963 12.12011542 54 17 C57.15204981 15.60652624 59.26171773 13.97514921 61.671875 11.5234375 C62.33574219 10.853125 62.99960937 10.1828125 63.68359375 9.4921875 C64.36550781 8.79351562 65.04742187 8.09484375 65.75 7.375 C66.44738281 6.66859375 67.14476563 5.9621875 67.86328125 5.234375 C69.58012488 3.49401297 71.29211832 1.74915019 73 0 C87.10146556 6.57571004 103.34589409 22.63079459 111 36 C115.3300867 47.94117592 113.23493041 61.78575138 111 74 C106.09526099 69.88670129 101.4780472 65.61457539 96.97265625 61.0703125 C96.02198524 60.11751907 96.02198524 60.11751907 95.05210876 59.14547729 C93.05318594 57.14101284 91.05779216 55.13307786 89.0625 53.125 C87.69749867 51.75497611 86.3322664 50.38518226 84.96679688 49.015625 C81.64185789 45.67973457 78.32007647 42.34072964 75 39 C71.53370165 40.48653506 69.30977964 42.45722351 66.671875 45.1328125 C65.87265625 45.93847656 65.0734375 46.74414062 64.25 47.57421875 C63.425 48.41597656 62.6 49.25773437 61.75 50.125 C60.90953125 50.97449219 60.0690625 51.82398438 59.203125 52.69921875 C57.13084317 54.79504923 55.06337607 56.89540713 53 59 C53.33 59.99 53.66 60.98 54 62 C57.15204981 60.60652624 59.26171773 58.97514921 61.671875 56.5234375 C62.33574219 55.853125 62.99960937 55.1828125 63.68359375 54.4921875 C64.36550781 53.79351562 65.04742187 53.09484375 65.75 52.375 C66.44738281 51.66859375 67.14476563 50.9621875 67.86328125 50.234375 C69.58012488 48.49401297 71.29211832 46.74915019 73 45 C86.77978128 51.41801113 106.67508304 69.2723667 111.96032715 83.60406494 C114.6627882 94.83719559 113.11886865 106.78054256 111 118 C108.00056095 116.65427113 105.91923821 115.16462899 103.60839844 112.83544922 C102.64785553 111.87467972 102.64785553 111.87467972 101.66790771 110.89450073 C100.98859192 110.20486237 100.30927612 109.515224 99.609375 108.8046875 C98.90476135 108.09724396 98.20014771 107.38980042 97.47418213 106.66091919 C95.2280461 104.40360138 92.98896991 102.13942367 90.75 99.875 C89.22702283 98.34199047 87.70359061 96.80943285 86.1796875 95.27734375 C82.44783185 91.52345427 78.72174649 87.76391086 75 84 C71.47655356 85.6586188 69.20098122 87.56657308 66.453125 90.3515625 C65.60878906 91.20234375 64.76445313 92.053125 63.89453125 92.9296875 C63.02183594 93.81914062 62.14914063 94.70859375 61.25 95.625 C60.36183594 96.5221875 59.47367188 97.419375 58.55859375 98.34375 C56.36783031 100.55807004 54.18187237 102.77692435 52 105 C52.99 106.485 52.99 106.485 54 108 C57.15204981 106.60652624 59.26171773 104.97514921 61.671875 102.5234375 C62.33574219 101.853125 62.99960937 101.1828125 63.68359375 100.4921875 C64.36550781 99.79351562 65.04742187 99.09484375 65.75 98.375 C66.44738281 97.66859375 67.14476563 96.9621875 67.86328125 96.234375 C69.58012488 94.49401297 71.29211832 92.74915019 73 91 C87.10146556 97.57571004 103.34589409 113.63079459 111 127 C115.3300867 138.94117592 113.23493041 152.78575138 111 165 C106.09526099 160.88670129 101.4780472 156.61457539 96.97265625 152.0703125 C96.33887558 151.43511688 95.70509491 150.79992126 95.05210876 150.14547729 C93.05318594 148.14101284 91.05779216 146.13307786 89.0625 144.125 C87.69749867 142.75497611 86.3322664 141.38518226 84.96679688 140.015625 C81.64185789 136.67973457 78.32007647 133.34072964 75 130 C71.91254539 131.34641112 70.1198565 132.7343784 68.01196289 135.34814453 C67.44966476 136.02852783 66.88736664 136.70891113 66.30802917 137.40991211 C65.70235611 138.14346924 65.09668304 138.87702637 64.47265625 139.6328125 C40.90574661 166.97388515 40.90574661 166.97388515 26.51953125 168.25 C17.62285407 168.68044623 8.73279328 167.6492457 0 166 C4.11329871 161.09526099 8.38542461 156.4780472 12.9296875 151.97265625 C13.56488312 151.33887558 14.20007874 150.70509491 14.85452271 150.05210876 C16.85898716 148.05318594 18.86692214 146.05779216 20.875 144.0625 C22.24502389 142.69749867 23.61481774 141.3322664 24.984375 139.96679688 C28.32026543 136.64185789 31.65927036 133.32007647 35 130 C33.02257861 125.85517189 31.03746384 122.36857161 27 120 C22.37607238 119.12188757 17.8212312 119.11521619 13.125 119.125 C11.86429688 119.104375 10.60359375 119.08375 9.3046875 119.0625 C6.20246327 119.0154966 3.10250681 118.99555059 0 119 C3.27416504 115.17198596 6.55319627 111.34935625 9.875 107.5625 C10.76832031 106.54349609 10.76832031 106.54349609 11.6796875 105.50390625 C12.33324219 104.75947266 12.33324219 104.75947266 13 104 C12.44828125 103.7525 11.8965625 103.505 11.328125 103.25 C5.75788675 100.25926805 0.42079129 96.18095318 -1.68164062 89.99414062 C-3.00110397 83.76739661 -3.14192471 77.29697088 0.41796875 71.81738281 C4.14790768 67.33097874 8.43989196 63.61784081 13 60 C9.82938369 56.23974646 6.6690553 52.54304445 3.125 49.125 C2.06514251 48.10184753 1.01731 47.06546668 0 46 C0 45.67 0 45.34 0 45 C0.8470752 45.00112793 1.69415039 45.00225586 2.56689453 45.00341797 C5.73217638 44.99344926 8.89574089 44.95675302 12.06054688 44.90234375 C13.42600753 44.88425818 14.79165008 44.87660175 16.15722656 44.87988281 C24.03784287 45.13654954 24.03784287 45.13654954 31.26855469 42.60644531 C33.12881279 40.84134753 33.12881279 40.84134753 35 38 C33.63982931 34.95463834 32.11219914 32.87065783 29.74365234 30.5324707 C28.75285172 29.5467382 28.75285172 29.5467382 27.74203491 28.54109192 C27.03052277 27.8430394 26.31901062 27.14498688 25.5859375 26.42578125 C24.85629791 25.70134323 24.12665833 24.97690521 23.37490845 24.23051453 C21.04630187 21.91971151 18.7111124 19.61571279 16.375 17.3125 C14.03263921 14.99770485 11.69173022 12.68148771 9.35366821 10.36235046 C7.89851733 8.91951362 6.44070315 7.47935722 4.98007202 6.04206848 C4.32584259 5.39436996 3.67161316 4.74667145 2.99755859 4.0793457 C2.41734955 3.50738968 1.8371405 2.93543365 1.23934937 2.34614563 C0 1 0 1 0 0 Z " fill="#FC3030" transform="translate(1,168)"/>
<path d="M0 0 C5.0491248 -0.29990233 10.09293046 -0.51578787 15.14892578 -0.65917969 C16.86241021 -0.7190085 18.57529565 -0.80051858 20.28662109 -0.90527344 C22.77070699 -1.05336038 25.24663661 -1.11935532 27.734375 -1.171875 C28.85546661 -1.26477814 28.85546661 -1.26477814 29.99920654 -1.35955811 C35.98992486 -1.36689707 40.84986943 1.5505991 45.0657692 5.61377335 C52.85361064 15.05272033 50.7313458 29.89558908 50.61190605 41.49547958 C50.58126579 45.40569746 50.60977118 49.31559683 50.62854004 53.22583008 C50.65029916 59.78952446 50.62179979 66.35159237 50.56445312 72.91503906 C50.49915031 80.47581604 50.52031019 88.0327094 50.58636999 95.59339237 C50.64104145 102.1146976 50.64840854 108.63484181 50.61710596 115.15630245 C50.59851147 119.03824853 50.59557412 122.91837631 50.63554382 126.80020142 C50.87123743 153.34993717 50.87123743 153.34993717 45.0657692 160.38622665 C40.84986943 164.4494009 35.98992486 167.36689707 29.99920654 167.35955811 C29.25181213 167.29762268 28.50441772 167.23568726 27.734375 167.171875 C26.93010071 167.15489563 26.12582642 167.13791626 25.29718018 167.12042236 C22.77553145 167.05422978 20.26763859 166.90411147 17.75 166.75 C16.02232303 166.68967563 14.29444124 166.63494587 12.56640625 166.5859375 C8.37245823 166.45497613 4.18854208 166.24878639 0 166 C4.11329871 161.09526099 8.38542461 156.4780472 12.9296875 151.97265625 C13.56488312 151.33887558 14.20007874 150.70509491 14.85452271 150.05210876 C16.85898716 148.05318594 18.86692214 146.05779216 20.875 144.0625 C22.24502389 142.69749867 23.61481774 141.3322664 24.984375 139.96679688 C28.32026543 136.64185789 31.65927036 133.32007647 35 130 C33.02257861 125.85517189 31.03746384 122.36857161 27 120 C22.37607238 119.12188757 17.8212312 119.11521619 13.125 119.125 C11.86429687 119.104375 10.60359375 119.08375 9.3046875 119.0625 C6.20246327 119.0154966 3.10250681 118.99555059 0 119 C3.27416504 115.17198596 6.55319627 111.34935625 9.875 107.5625 C10.76832031 106.54349609 10.76832031 106.54349609 11.6796875 105.50390625 C12.33324219 104.75947266 12.33324219 104.75947266 13 104 C12.43796875 103.7628125 11.8759375 103.525625 11.296875 103.28125 C8.48105958 101.71052303 6.52044584 99.78528536 4.25 97.5 C3.45078125 96.7059375 2.6515625 95.911875 1.828125 95.09375 C0 93 0 93 0 91 C1.21731812 91.00954712 1.21731812 91.00954712 2.45922852 91.01928711 C6.16124033 91.02800892 9.86077689 90.98324547 13.5625 90.9375 C14.83931641 90.94845703 16.11613281 90.95941406 17.43164062 90.97070312 C25.73408986 90.89701221 25.73408986 90.89701221 32.40234375 86.44140625 C33.93156703 84.60740289 33.93156703 84.60740289 35 83 C33.71007857 80.12248297 32.59704593 77.84609289 30 76 C26.80522025 75.491851 26.80522025 75.491851 23.14453125 75.48828125 C22.15207649 75.46135445 22.15207649 75.46135445 21.13957214 75.43388367 C19.03061253 75.37979102 16.92187901 75.34589069 14.8125 75.3125 C13.38082792 75.27932573 11.94918567 75.24483595 10.51757812 75.20898438 C7.0119361 75.12406743 3.50621527 75.05725079 0 75 C1.83692389 70.99625569 4.49117916 68.28042066 7.625 65.25 C8.140625 64.74339844 8.65625 64.23679687 9.1875 63.71484375 C10.45383339 62.47196098 11.7263144 61.23534724 13 60 C9.28999456 55.56609106 5.48007094 51.39851004 1.3203125 47.3828125 C0 46 0 46 0 45 C0.8470752 45.00112793 1.69415039 45.00225586 2.56689453 45.00341797 C5.73217638 44.99344926 8.89574089 44.95675302 12.06054688 44.90234375 C13.42600753 44.88425818 14.79165008 44.87660175 16.15722656 44.87988281 C24.03784287 45.13654954 24.03784287 45.13654954 31.26855469 42.60644531 C33.12881279 40.84134753 33.12881279 40.84134753 35 38 C33.63982931 34.95463834 32.11219914 32.87065783 29.74365234 30.5324707 C28.75285172 29.5467382 28.75285172 29.5467382 27.74203491 28.54109192 C27.03052277 27.8430394 26.31901062 27.14498688 25.5859375 26.42578125 C24.85629791 25.70134323 24.12665833 24.97690521 23.37490845 24.23051453 C21.04630187 21.91971151 18.7111124 19.61571279 16.375 17.3125 C14.03263921 14.99770485 11.69173022 12.68148771 9.35366821 10.36235046 C7.89851733 8.91951362 6.44070315 7.47935722 4.98007202 6.04206848 C4.32584259 5.39436996 3.67161316 4.74667145 2.99755859 4.0793457 C2.41734955 3.50738968 1.8371405 2.93543365 1.23934937 2.34614563 C0 1 0 1 0 0 Z " fill="#FD3030" transform="translate(451,168)"/>
<path d="M0 0 C3.04332765 1.3584202 5.12309151 2.88463024 7.453125 5.2578125 C8.071875 5.88300781 8.690625 6.50820312 9.328125 7.15234375 C9.96234375 7.80332031 10.5965625 8.45429688 11.25 9.125 C12.22453125 10.11306641 12.22453125 10.11306641 13.21875 11.12109375 C14.81711727 12.74296643 16.41061897 14.3693281 18 16 C17.02133662 17.14626322 16.04205413 18.29199788 15.0625 19.4375 C14.51722656 20.07558594 13.97195313 20.71367187 13.41015625 21.37109375 C12.63204305 22.26991149 11.84063472 23.15936528 11 24 C8.85441173 24.08775605 6.70595579 24.10695219 4.55859375 24.09765625 C3.25341797 24.09443359 1.94824219 24.09121094 0.60351562 24.08789062 C-0.7851569 24.07953401 -2.17382877 24.07106905 -3.5625 24.0625 C-4.95507656 24.05748666 -6.34765481 24.05292347 -7.74023438 24.04882812 C-11.1601987 24.03699434 -14.58007844 24.0205088 -18 24 C-16.90631807 25.26160575 -15.81092802 26.52173084 -14.71484375 27.78125 C-14.10503662 28.48314453 -13.49522949 29.18503906 -12.86694336 29.90820312 C-10.35254911 32.72542947 -7.7024229 35.36348985 -5 38 C-6.58667578 41.90285767 -9.13350481 44.33520982 -12.125 47.25 C-13.03507812 48.14203125 -13.94515625 49.0340625 -14.8828125 49.953125 C-15.58148438 50.62859375 -16.28015625 51.3040625 -17 52 C-16.21874756 51.99363525 -15.43749512 51.98727051 -14.63256836 51.98071289 C-11.06659006 51.97198765 -7.50317874 52.01676272 -3.9375 52.0625 C-2.09381836 52.04606445 -2.09381836 52.04606445 -0.21289062 52.02929688 C10.03515625 52.22265625 10.03515625 52.22265625 14.37109375 56.55859375 C15.95874023 58.50170898 15.95874023 58.50170898 17 60 C15.02257861 64.14482811 13.03746384 67.63142839 9 70 C4.37607238 70.87811243 -0.1787688 70.88478381 -4.875 70.875 C-6.13570313 70.895625 -7.39640625 70.91625 -8.6953125 70.9375 C-11.79753673 70.9845034 -14.89749319 71.00444941 -18 71 C-17.12214844 71.81984375 -16.24429688 72.6396875 -15.33984375 73.484375 C-14.20508388 74.57224397 -13.07100421 75.66082277 -11.9375 76.75 C-11.35677734 77.28882813 -10.77605469 77.82765625 -10.17773438 78.3828125 C-8.52734375 79.984375 -8.52734375 79.984375 -6 83 C-6.42447782 87.31968604 -9.02118771 89.32418059 -12.0625 92.25 C-12.98160156 93.14203125 -13.90070313 94.0340625 -14.84765625 94.953125 C-15.55792969 95.62859375 -16.26820313 96.3040625 -17 97 C-16.25951416 96.98316162 -15.51902832 96.96632324 -14.75610352 96.94897461 C-11.35709748 96.8982907 -7.96179536 96.91740744 -4.5625 96.9375 C-3.39783203 96.90978516 -2.23316406 96.88207031 -1.03320312 96.85351562 C5.76792302 96.94930613 9.43980645 97.65855645 14.34765625 102.56640625 C15.59897901 104.01570074 16.82947693 105.48469841 18 107 C13.30233025 112.66129431 8.25276628 117.85228904 3 123 C-3.94103433 117.31978209 -10.17673906 110.94998244 -16.49609375 104.6015625 C-17.69656287 103.39922532 -18.89725518 102.19711095 -20.09815979 100.99520874 C-23.23866548 97.85090837 -26.37615481 94.70361521 -29.51300049 91.55566406 C-32.72232618 88.33605827 -35.93453005 85.11932679 -39.14648438 81.90234375 C-45.43379102 75.60435365 -51.71791106 69.30319435 -58 63 C-56.515 62.505 -56.515 62.505 -55 62 C-43.78 73.22 -32.56 84.44 -21 96 C-18.06876503 73.76099783 -18.06876503 73.76099783 -25.23046875 53.37890625 C-29.69223232 48.67254615 -34.62130034 44.61691954 -40 41 C-38.68 39.68 -37.36 38.36 -36 37 C-28.575 44.425 -28.575 44.425 -21 52 C-21.15984375 49.92203125 -21.3196875 47.8440625 -21.484375 45.703125 C-22.70300292 22.34358096 -22.70300292 22.34358096 -15.48046875 13.421875 C-10.72877504 8.45739327 -5.54880233 4.04902545 0 0 Z " fill="#020000" transform="translate(357,189)"/>
<path d="M0 0 C0.33 0 0.66 0 1 0 C1 2.31 1 4.62 1 7 C10.9 7 20.8 7 31 7 C31 7.33 31 7.66 31 8 C21.43 8 11.86 8 2 8 C6.273446 12.88393829 10.38582264 17.49836355 15 22 C13.41332422 25.90285767 10.86649519 28.33520982 7.875 31.25 C6.96492188 32.14203125 6.05484375 33.0340625 5.1171875 33.953125 C4.41851562 34.62859375 3.71984375 35.3040625 3 36 C3.77601562 35.99363525 4.55203125 35.98727051 5.3515625 35.98071289 C8.90199757 35.9719745 12.4498651 36.01679795 16 36.0625 C17.22074219 36.05154297 18.44148438 36.04058594 19.69921875 36.02929688 C25.91704264 36.14693138 30.07574318 36.35924403 34.875 40.55859375 C35.9486243 41.67587615 37.00371505 42.81323743 38 44 C36.01397406 48.15341897 34.06660407 51.64873681 30 54 C25.21022819 54.88220774 20.48517804 54.8847496 15.625 54.875 C13.66240234 54.9059375 13.66240234 54.9059375 11.66015625 54.9375 C8.43946692 54.98451736 5.2209618 55.00444796 2 55 C2.87785156 55.81984375 3.75570312 56.6396875 4.66015625 57.484375 C5.79491612 58.57224397 6.92899579 59.66082277 8.0625 60.75 C8.93358398 61.55824219 8.93358398 61.55824219 9.82226562 62.3828125 C11.47265625 63.984375 11.47265625 63.984375 14 67 C13.57552218 71.31968604 10.97881229 73.32418059 7.9375 76.25 C6.308125 77.8175 4.67875 79.385 3 81 C15.87 81.495 15.87 81.495 29 82 C29 82.33 29 82.66 29 83 C25.04903022 83.04939662 21.0981797 83.08571755 17.14697266 83.10986328 C15.1408864 83.12488107 13.13488676 83.15028981 11.12890625 83.17578125 C9.87207031 83.18222656 8.61523438 83.18867188 7.3203125 83.1953125 C6.15773926 83.20578613 4.99516602 83.21625977 3.79736328 83.22705078 C1 83 1 83 -1 81 C-0.82198675 79.33673417 -0.62567837 77.6731962 -0.33311462 76.0262146 C1.62679265 64.93103621 3.44579852 51.49886519 -2.54229736 41.39855957 C-11.66303016 28.92141365 -24.06588497 18.69790747 -36 9 C-39.11966041 10.48863736 -41.24012613 12.00288692 -43.671875 14.4765625 C-44.33574219 15.146875 -44.99960938 15.8171875 -45.68359375 16.5078125 C-46.36550781 17.20648438 -47.04742187 17.90515625 -47.75 18.625 C-48.44738281 19.33140625 -49.14476562 20.0378125 -49.86328125 20.765625 C-51.58012488 22.50598703 -53.29211832 24.25084981 -55 26 C-56.32 25.34 -57.64 24.68 -59 24 C-57.48623919 20.43235715 -55.39486871 18.16293713 -52.6484375 15.453125 C-51.79765625 14.60878906 -50.946875 13.76445312 -50.0703125 12.89453125 C-49.18085937 12.02183594 -48.29140625 11.14914063 -47.375 10.25 C-46.4778125 9.36183594 -45.580625 8.47367188 -44.65625 7.55859375 C-42.44192996 5.36783031 -40.22307565 3.18187237 -38 1 C-34.95418514 2.36113013 -32.86160974 3.89330096 -30.51660156 6.25634766 C-29.85621887 6.91688141 -29.19583618 7.57741516 -28.51544189 8.25796509 C-27.81425232 8.96947723 -27.11306274 9.68098938 -26.390625 10.4140625 C-25.66381531 11.14370209 -24.93700562 11.87334167 -24.18817139 12.62509155 C-21.87070802 14.9537388 -19.5603005 17.28924826 -17.25 19.625 C-15.67884556 21.20618653 -14.10723629 22.78692125 -12.53515625 24.3671875 C-8.68392785 28.23874974 -4.84231838 32.11951289 -1 36 C-0.67 24.12 -0.34 12.24 0 0 Z " fill="#0B0202" transform="translate(112,205)"/>
<path d="M0 0 C4.3074532 -0.13828922 8.60712838 -0.25750298 12.91503906 -0.32958984 C14.37787038 -0.35964802 15.84052317 -0.40050856 17.30273438 -0.45263672 C29.50038713 -0.87639713 29.50038713 -0.87639713 33.33105469 1.36230469 C34.9921875 3.0234375 34.9921875 3.0234375 37 6 C35.37622333 10.22181934 32.92788552 13.73760014 29 16 C24.03600288 16.75166293 19.12545095 16.56603116 14.125 16.375 C12.75526676 16.34487105 11.38546991 16.31750036 10.015625 16.29296875 C6.67640049 16.22242175 3.33799578 16.11481005 0 16 C0 10.72 0 5.44 0 0 Z " fill="#000000" transform="translate(0,243)"/>
<path d="M0 0 C1.98 1.65 3.96 3.3 6 5 C4.84826645 7.46800047 3.95216435 9.04783565 2 11 C3.06927734 10.98646484 3.06927734 10.98646484 4.16015625 10.97265625 C9.72030797 11.144774 13.18632221 11.47899345 17.1875 15.5625 C18.15228971 16.68545196 19.10045042 17.82413826 20 19 C18.5450489 22.34784108 16.70194509 24.54377373 14.12109375 27.109375 C13.36505859 27.86347656 12.60902344 28.61757813 11.83007812 29.39453125 C10.64575195 30.56048828 10.64575195 30.56048828 9.4375 31.75 C8.64408203 32.54277344 7.85066406 33.33554687 7.03320312 34.15234375 C1.14025522 40 1.14025522 40 0 40 C0.03222656 38.73285156 0.06445312 37.46570313 0.09765625 36.16015625 C0.3653278 26.53681843 0.3653278 26.53681843 -3.10546875 17.875 C-5.55342496 15.54518474 -5.55342496 15.54518474 -8.1640625 13.69140625 C-8.76992187 13.13324219 -9.37578125 12.57507813 -10 12 C-9.7734375 9.77734375 -9.7734375 9.77734375 -9 8 C-7.25 7.25 -7.25 7.25 -5 7 C-2.75 8.9375 -2.75 8.9375 -1 11 C-0.67 7.37 -0.34 3.74 0 0 Z " fill="#020000" transform="translate(225,275)"/>
<path d="M0 0 C1.98 1.65 3.96 3.3 6 5 C4.4707257 8.44086718 2.37237071 11.09239931 0 14 C1.03640625 13.95359375 2.0728125 13.9071875 3.140625 13.859375 C4.51038779 13.82184725 5.88018182 13.78544816 7.25 13.75 C8.27287109 13.69972656 8.27287109 13.69972656 9.31640625 13.6484375 C12.76387963 13.58149627 14.68365773 13.78069523 17.546875 15.765625 C19 18 19 18 18.9609375 19.984375 C16.92819369 24.24817909 13.92254082 27.40147138 10 30 C6.23003144 30.65306542 2.78183231 30.50053663 -1 30 C-1.00257813 29.43152344 -1.00515625 28.86304688 -1.0078125 28.27734375 C-1.33683192 21.70792264 -3.32156371 18.49222987 -8 14 C-9 13 -10 12 -11 11 C-10.01 10.01 -9.02 9.02 -8 8 C-5.53199953 9.15173355 -3.95216435 10.04783565 -2 12 C-1.93941406 11.21753906 -1.87882813 10.43507812 -1.81640625 9.62890625 C-1.73261719 8.61699219 -1.64882812 7.60507813 -1.5625 6.5625 C-1.48128906 5.55316406 -1.40007812 4.54382813 -1.31640625 3.50390625 C-1 1 -1 1 0 0 Z " fill="#070101" transform="translate(226,229)"/>
<path d="M0 0 C0.33 0.99 0.66 1.98 1 3 C10.9 3 20.8 3 31 3 C31 3.33 31 3.66 31 4 C21.43 4 11.86 4 2 4 C6.273446 8.88393829 10.38582264 13.49836355 15 18 C12.63964283 23.80593604 7.39004017 27.72252496 3 32 C16.365 32.495 16.365 32.495 30 33 C30 33.33 30 33.66 30 34 C20.1 34 10.2 34 0 34 C0 22.78 0 11.56 0 0 Z " fill="#1F0505" transform="translate(337,209)"/>
<path d="M0 0 C4.56121749 0.45548753 7.03677598 3.65788474 10.078125 6.78515625 C10.93528107 7.64867958 10.93528107 7.64867958 11.80975342 8.52964783 C13.63033802 10.36700319 15.44020568 12.21452132 17.25 14.0625 C18.48368253 15.31123138 19.71804978 16.55928669 20.953125 17.80664062 C23.97674655 20.8633102 26.99079921 23.92913526 30 27 C29.01 28.32 28.02 29.64 27 31 C23.23396131 29.43717018 20.86360849 27.0936525 18.015625 24.2109375 C17.55516785 23.74765045 17.09471069 23.2843634 16.62030029 22.80703735 C15.15874922 21.33434102 13.70432832 19.85482597 12.25 18.375 C11.25697389 17.37193678 10.26348911 16.36932743 9.26953125 15.3671875 C6.84102059 12.91669165 4.41885325 10.4600333 2 8 C1.54109375 8.42152344 1.0821875 8.84304687 0.609375 9.27734375 C-0.00421875 9.82519531 -0.6178125 10.37304688 -1.25 10.9375 C-1.85328125 11.48277344 -2.4565625 12.02804688 -3.078125 12.58984375 C-5.08467305 14.06212799 -6.57002449 14.57529189 -9 15 C-9.66 13.68 -10.32 12.36 -11 11 C-9.26461877 9.12997712 -7.5140665 7.28011908 -5.75 5.4375 C-5.01330078 4.63795898 -5.01330078 4.63795898 -4.26171875 3.82226562 C-2.796875 2.30859375 -2.796875 2.30859375 0 0 Z " fill="#190404" transform="translate(186,206)"/>
<path d="M0 0 C0.33 0 0.66 0 1 0 C0.89945312 0.87398437 0.89945312 0.87398437 0.796875 1.765625 C0.70552278 6.60729269 1.41608595 9.67105629 4.7734375 13.1953125 C6.42931385 14.81761712 8.11846136 16.3693322 9.87011719 17.88769531 C13.95460393 21.49967732 13.95460393 21.49967732 14.18359375 24.0234375 C12.47772647 26.87217956 10.32719935 28.95104873 7.9375 31.25 C6.308125 32.8175 4.67875 34.385 3 36 C15.87 36.495 15.87 36.495 29 37 C29 37.33 29 37.66 29 38 C25.04903022 38.04939662 21.0981797 38.08571755 17.14697266 38.10986328 C15.1408864 38.12488107 13.13488676 38.15028981 11.12890625 38.17578125 C9.87207031 38.18222656 8.61523438 38.18867188 7.3203125 38.1953125 C6.15773926 38.20578613 4.99516602 38.21625977 3.79736328 38.22705078 C1 38 1 38 -1 36 C-1.10454373 33.2701631 -1.08936137 30.65234943 -0.9765625 27.9296875 C-0.95153656 27.13345978 -0.92651062 26.33723206 -0.90072632 25.51687622 C-0.81843302 22.96915696 -0.72188097 20.42220226 -0.625 17.875 C-0.56676988 16.149771 -0.5094664 14.42451046 -0.453125 12.69921875 C-0.3128406 8.46570463 -0.15976487 4.23282193 0 0 Z " fill="#180404" transform="translate(337,250)"/>
<path d="M0 0 C0.33 0 0.66 0 1 0 C0.89945312 0.87398437 0.89945312 0.87398437 0.796875 1.765625 C0.70552278 6.60729269 1.41608595 9.67105629 4.7734375 13.1953125 C6.42931385 14.81761712 8.11846136 16.3693322 9.87011719 17.88769531 C13.95460393 21.49967732 13.95460393 21.49967732 14.18359375 24.0234375 C12.47772647 26.87217956 10.32719935 28.95104873 7.9375 31.25 C6.308125 32.8175 4.67875 34.385 3 36 C15.87 36.495 15.87 36.495 29 37 C29 37.33 29 37.66 29 38 C25.04903022 38.04939662 21.0981797 38.08571755 17.14697266 38.10986328 C15.1408864 38.12488107 13.13488676 38.15028981 11.12890625 38.17578125 C9.87207031 38.18222656 8.61523438 38.18867188 7.3203125 38.1953125 C6.15773926 38.20578613 4.99516602 38.21625977 3.79736328 38.22705078 C1 38 1 38 -1 36 C-1.10454373 33.2701631 -1.08936137 30.65234943 -0.9765625 27.9296875 C-0.95153656 27.13345978 -0.92651062 26.33723206 -0.90072632 25.51687622 C-0.81843302 22.96915696 -0.72188097 20.42220226 -0.625 17.875 C-0.56676988 16.149771 -0.5094664 14.42451046 -0.453125 12.69921875 C-0.3128406 8.46570463 -0.15976487 4.23282193 0 0 Z " fill="#180404" transform="translate(112,250)"/>
<path d="M0 0 C1.28144158 4.47713539 1.73387917 8.62616938 0 13 C-4.90003122 19.73064536 -11.40515409 25.92578951 -18 31 C-18.66 31 -19.32 31 -20 31 C-20.78920284 25.61321151 -21.24583985 20.95612364 -18.23486328 16.22851562 C-15.79100823 13.57648971 -13.25154712 11.15265111 -10.5625 8.75 C-9.66466797 7.89792969 -8.76683594 7.04585938 -7.84179688 6.16796875 C-1.28276109 0 -1.28276109 0 0 0 Z " fill="#0B0202" transform="translate(245,302)"/>
<path d="M0 0 C3.04332765 1.3584202 5.12309151 2.88463024 7.453125 5.2578125 C8.071875 5.88300781 8.690625 6.50820312 9.328125 7.15234375 C9.96234375 7.80332031 10.5965625 8.45429688 11.25 9.125 C12.22453125 10.11306641 12.22453125 10.11306641 13.21875 11.12109375 C14.81711727 12.74296643 16.41061897 14.3693281 18 16 C17.34 17.32 16.68 18.64 16 20 C12.09714233 18.41332422 9.66479018 15.86649519 6.75 12.875 C5.85796875 11.96492187 4.9659375 11.05484375 4.046875 10.1171875 C3.37140625 9.41851562 2.6959375 8.71984375 2 8 C-1.15204981 9.39347376 -3.26171773 11.02485079 -5.671875 13.4765625 C-6.33574219 14.146875 -6.99960937 14.8171875 -7.68359375 15.5078125 C-8.36550781 16.20648438 -9.04742187 16.90515625 -9.75 17.625 C-10.44738281 18.33140625 -11.14476562 19.0378125 -11.86328125 19.765625 C-13.58012488 21.50598703 -15.29211832 23.25084981 -17 25 C-18.32 24.34 -19.64 23.68 -21 23 C-19.48623919 19.43235715 -17.39486871 17.16293713 -14.6484375 14.453125 C-13.79765625 13.60878906 -12.946875 12.76445312 -12.0703125 11.89453125 C-11.18085938 11.02183594 -10.29140625 10.14914063 -9.375 9.25 C-8.4778125 8.36183594 -7.580625 7.47367188 -6.65625 6.55859375 C-4.44192996 4.36783031 -2.22307565 2.18187237 0 0 Z " fill="#070101" transform="translate(299,206)"/>
<path d="M0 0 C1.98 1.65 3.96 3.3 6 5 C5.3125 6.875 5.3125 6.875 4 9 C3.2272876 9.29688721 2.4545752 9.59377441 1.65844727 9.8996582 C-1.28531254 11.11809198 -2.69339216 12.41068626 -4.84765625 14.73046875 C-5.53537109 15.45041016 -6.22308594 16.17035156 -6.93164062 16.91210938 C-8.35988981 18.43723339 -9.78433719 19.96592607 -11.20507812 21.49804688 C-11.89150391 22.21412109 -12.57792969 22.93019531 -13.28515625 23.66796875 C-13.90269775 24.33078857 -14.52023926 24.9936084 -15.15649414 25.67651367 C-17 27 -17 27 -19.23217773 26.70825195 C-21 26 -21 26 -21.79467773 24.32519531 C-22 22 -22 22 -20.09399414 19.52636719 C-19.16707764 18.62563477 -18.24016113 17.72490234 -17.28515625 16.796875 C-16.79542831 16.3142218 -16.30570038 15.8315686 -15.8011322 15.33428955 C-14.23291773 13.79408365 -12.6482297 12.27214696 -11.0625 10.75 C-9.99691587 9.70949034 -8.93244754 8.66783666 -7.86914062 7.625 C-5.25891489 5.06992774 -2.63363148 2.53096503 0 0 Z " fill="#0B0202" transform="translate(187,250)"/>
<path d="M0 0 C7.15801225 5.82628904 13.52591766 12.4382985 20 19 C18.35 20.65 16.7 22.3 15 24 C8.73 17.73 2.46 11.46 -4 5 C-2.68 3.35 -1.36 1.7 0 0 Z " fill="#090101" transform="translate(196,259)"/>
<path d="M0 0 C1.32 0.66 2.64 1.32 4 2 C4 5 4 5 2.43945312 6.90112305 C1.72724609 7.59761963 1.01503906 8.29411621 0.28125 9.01171875 C-0.48574219 9.76904297 -1.25273437 10.52636719 -2.04296875 11.30664062 C-2.85378906 12.09232422 -3.66460937 12.87800781 -4.5 13.6875 C-5.31082031 14.48478516 -6.12164062 15.28207031 -6.95703125 16.10351562 C-8.96482203 18.0758748 -10.9792687 20.04091492 -13 22 C-14.32 21.34 -15.64 20.68 -17 20 C-17 17 -17 17 -15.43945312 15.09887695 C-14.37114258 14.05413208 -14.37114258 14.05413208 -13.28125 12.98828125 C-12.51425781 12.23095703 -11.74726563 11.47363281 -10.95703125 10.69335938 C-10.14621094 9.90767578 -9.33539063 9.12199219 -8.5 8.3125 C-7.68917969 7.51521484 -6.87835938 6.71792969 -6.04296875 5.89648438 C-4.03517797 3.9241252 -2.0207313 1.95908508 0 0 Z " fill="#000000" transform="translate(295,255)"/>
<path d="M0 0 C3.42541583 0.58344447 5.05698381 1.68841054 7.48339844 4.14282227 C8.14378113 4.80343155 8.80416382 5.46404083 9.48455811 6.14466858 C10.53634247 7.21967873 10.53634247 7.21967873 11.609375 8.31640625 C12.33618469 9.04746078 13.06299438 9.77851532 13.81182861 10.53172302 C16.13168401 12.86837157 18.440892 15.21523484 20.75 17.5625 C22.32092443 19.14847036 23.89253094 20.73376543 25.46484375 22.31835938 C29.31784484 26.20443822 33.16215519 30.09895543 37 34 C36.34 34.66 35.68 35.32 35 36 C30.01198984 31.03725067 25.02783011 26.07065912 20.04638672 21.10131836 C18.34969051 19.40966507 16.65209984 17.71890844 14.95361328 16.02905273 C12.51882518 13.6063321 10.08722431 11.18045288 7.65625 8.75390625 C6.89066772 7.99348526 6.12508545 7.23306427 5.33630371 6.44960022 C4.63557739 5.74894943 3.93485107 5.04829865 3.21289062 4.32641602 C2.59111938 3.70686539 1.96934814 3.08731476 1.32873535 2.44898987 C0 1 0 1 0 0 Z " fill="#340909" transform="translate(299,251)"/>
<path d="M0 0 C2.88437779 1.29299694 4.87219421 2.65941363 7 5 C5.63016497 8.16115776 5.0109362 8.9927092 2 11 C0.35 9.35 -1.3 7.7 -3 6 C-2 4 -1 2 0 0 Z " fill="#0F0303" transform="translate(255,244)"/>
<path d="M0 0 C3.36720387 1.39332574 4.9859524 2.9789286 7 6 C5.68 7.32 4.36 8.64 3 10 C-0.36720387 8.60667426 -1.9859524 7.0210714 -4 4 C-2.68 2.68 -1.36 1.36 0 0 Z " fill="#0D0202" transform="translate(233,222)"/>
<path d="M0 0 C1.98 1.65 3.96 3.3 6 5 C4.63016497 8.16115776 4.0109362 8.9927092 1 11 C-0.65 9.35 -2.3 7.7 -4 6 C-2.84826645 3.53199953 -1.95216435 1.95216435 0 0 Z " fill="#0C0202" transform="translate(256,199)"/>
<path d="M0 0 C0.99 0 1.98 0 3 0 C5.1875 2.5 5.1875 2.5 7 5 C6.34 6.32 5.68 7.64 5 9 C1 9 1 9 -1.25 7 C-1.8275 6.34 -2.405 5.68 -3 5 C-1.125 1.125 -1.125 1.125 0 0 Z " fill="#0D0202" transform="translate(255,291)"/>
<path d="M0 0 C1.98 1.65 3.96 3.3 6 5 C4.84826645 7.46800047 3.95216435 9.04783565 2 11 C5.63 11.33 9.26 11.66 13 12 C13 12.33 13 12.66 13 13 C8.71 13 4.42 13 0 13 C0 8.71 0 4.42 0 0 Z " fill="#130303" transform="translate(225,275)"/>
<path d="M0 0 C2.49361571 1.20381448 4.68143083 2.45428722 7 4 C5.63016497 7.16115776 5.0109362 7.9927092 2 10 C0.35 8.35 -1.3 6.7 -3 5 C-1.125 1.125 -1.125 1.125 0 0 Z " fill="#070101" transform="translate(232,268)"/>
<path d="M0 0 C3.96 0 7.92 0 12 0 C12 0.33 12 0.66 12 1 C8.7 1.33 5.4 1.66 2 2 C3.32 3.65 4.64 5.3 6 7 C4.71034824 8.37562854 3.37310707 9.70766393 2 11 C1.34 11 0.68 11 0 11 C0 7.37 0 3.74 0 0 Z " fill="#170404" transform="translate(225,212)"/>
<path d="M0 0 C0.598125 0.226875 1.19625 0.45375 1.8125 0.6875 C1.8125 4.59588866 0.30682124 5.80344107 -2.1875 8.6875 C-3.5075 8.0275 -4.8275 7.3675 -6.1875 6.6875 C-5.78066505 4.32785727 -5.28935661 2.82815912 -3.875 0.875 C-2.1875 -0.3125 -2.1875 -0.3125 0 0 Z " fill="#130303" transform="translate(172.1875,222.3125)"/>
<path d="M0 0 C1.98 1.65 3.96 3.3 6 5 C4.35830472 7.02054804 2.69088222 9.02043058 1 11 C0.67 11 0.34 11 0 11 C0 7.37 0 3.74 0 0 Z " fill="#350A0A" transform="translate(249,299)"/>
<path d="M0 0 C1.65 0.99 3.3 1.98 5 3 C3.63016497 6.16115776 3.0109362 6.9927092 0 9 C0 6.03 0 3.06 0 0 Z " fill="#100303" transform="translate(225,260)"/>
<path d="M0 0 C1.98 1.65 3.96 3.3 6 5 C5.67 5.66 5.34 6.32 5 7 C3.35 7 1.7 7 0 7 C0 4.69 0 2.38 0 0 Z " fill="#310909" transform="translate(249,252)"/>
<path d="M0 0 C1.32 0.99 2.64 1.98 4 3 C2.25 6.875 2.25 6.875 0 8 C0 5.36 0 2.72 0 0 Z " fill="#3B0B0B" transform="translate(249,192)"/>
</svg>
